<svg width="85" height="108" viewBox="0 0 85 108" fill="none" xmlns="http://www.w3.org/2000/svg">
<path d="M42.1622 10V10.0078C41.6153 10.0039 41.17 10.4453 41.1661 10.9922V24.8792C39.1192 26.8519 37.9552 29.5784 37.9513 32.4339C37.9513 32.6761 37.9552 32.9183 37.9747 33.1566C36.5645 32.098 34.9044 31.4066 33.1388 31.1566V17.5356C33.1388 17.2699 33.0334 17.016 32.8459 16.8285C32.6584 16.641 32.4045 16.5395 32.1388 16.5395C31.592 16.5434 31.1545 16.9887 31.1584 17.5356V31.9696C30.717 34.6102 31.299 37.3055 32.7717 39.5165C32.5803 39.4969 32.3889 39.4813 32.1975 39.4696C31.6975 39.4422 31.256 39.7977 31.1702 40.2899C30.7014 42.9579 31.2834 45.6961 32.7718 47.9305C32.5803 47.911 32.3889 47.8953 32.1975 47.8836C31.6975 47.8602 31.2561 48.2117 31.1702 48.7039C30.7015 51.3719 31.2874 54.1141 32.7796 56.3523C32.5882 56.3328 32.3929 56.3094 32.2015 56.3054H32.1976C31.6976 56.282 31.2562 56.6336 31.1703 57.1258C30.6508 60.0867 31.4281 63.1258 33.2992 65.4774C35.1742 67.829 37.9711 69.2665 40.975 69.4227V69.4266C41.0375 69.4266 41.1 69.4227 41.1625 69.4148V96.5168V96.5129C41.1703 97.052 41.6039 97.4895 42.1469 97.4973C42.6899 97.4973 43.1391 97.0598 43.143 96.5129V69.4109C43.2133 69.4227 43.2797 69.4266 43.35 69.4227C46.3539 69.2664 49.1352 67.8289 51.0102 65.4774C52.8813 63.1258 53.6547 60.0868 53.1391 57.1258V57.1219C53.0493 56.6297 52.6118 56.2781 52.1079 56.3015C51.9126 56.3133 51.7251 56.3328 51.5298 56.3484C53.022 54.1101 53.604 51.3679 53.1353 48.7H53.1392C53.0493 48.2078 52.6079 47.8563 52.108 47.8797C51.9166 47.8914 51.7291 47.9031 51.5377 47.9266C53.026 45.6922 53.6041 42.95 53.1354 40.286H53.1393C53.0494 39.7938 52.6119 39.4422 52.1081 39.4657C51.9167 39.4774 51.7253 39.4891 51.5378 39.5086C53.0066 37.3016 53.5886 34.6141 53.1511 31.9813V17.5363L53.155 17.5324C53.155 16.9856 52.7175 16.5402 52.1706 16.5324C51.905 16.5324 51.6511 16.6379 51.4636 16.8254C51.2761 17.0129 51.1706 17.2668 51.1745 17.5324V31.1574C49.4089 31.4074 47.7409 32.0949 46.3307 33.1574C46.3502 32.9152 46.362 32.6731 46.362 32.4309C46.362 29.5715 45.1979 26.8371 43.1472 24.8606V10.9856C43.1394 10.4465 42.7019 10.009 42.1628 10.0012L42.1622 10ZM19.4162 26.496L19.4123 26.5038H19.4162C18.8771 26.6015 18.5178 27.121 18.6193 27.66L21.2209 41.297C19.5803 43.6173 18.9475 46.5118 19.4826 49.3165C19.5256 49.5548 19.5842 49.7892 19.6428 50.0196C18.0608 49.2423 16.2951 48.879 14.5139 48.9649L11.9592 35.5859H11.9631C11.9123 35.3281 11.7639 35.0977 11.5451 34.9492C11.3264 34.8008 11.0568 34.7461 10.7951 34.7969C10.26 34.9063 9.9162 35.4258 10.0178 35.961L12.7248 50.149C12.7873 52.8209 13.8654 55.3521 15.7209 57.2428C15.5295 57.2623 15.3381 57.2779 15.1506 57.3053V57.3092C14.6545 57.3795 14.2873 57.8092 14.2951 58.3092C14.3381 61.0162 15.4201 63.5944 17.299 65.5123C17.1076 65.5318 16.9162 65.5474 16.7287 65.5748C16.2326 65.6451 15.8693 66.0748 15.8732 66.5748C15.9162 69.2818 16.9982 71.8717 18.881 73.7896C18.6896 73.8091 18.4982 73.8208 18.3068 73.8521C17.8107 73.9224 17.4474 74.3521 17.4552 74.8521C17.5021 77.8599 18.8263 80.6959 21.1075 82.6568C23.3887 84.6138 26.4083 85.5006 29.3887 85.0904C29.4512 85.0826 29.5098 85.0669 29.5723 85.0435L31.7989 96.6995L31.795 96.7034C31.9044 97.2347 32.4239 97.5823 32.9591 97.4808C33.4865 97.3714 33.8341 96.8636 33.7404 96.3284L31.5138 84.6724C31.5841 84.6685 31.6544 84.6607 31.7208 84.6412C34.6427 83.9264 37.1036 81.9889 38.506 79.3287C39.2677 77.8756 39.6701 76.2857 39.7052 74.6842L38.9161 70.5631C38.6974 70.2076 38.2755 70.0279 37.8653 70.1139C37.6778 70.1608 37.4942 70.2115 37.3106 70.2662C37.3927 70.067 37.4669 69.8678 37.5411 69.6647C36.881 69.4342 36.2481 69.149 35.6427 68.8092C35.5451 69.2623 35.3927 69.7076 35.1662 70.1373C34.2912 71.8014 32.6076 72.6764 30.9318 73.4576C30.6193 71.6373 30.3771 69.7388 31.2482 68.0787C31.6075 67.3951 32.1075 66.8521 32.6857 66.3873C32.6154 66.3013 32.5372 66.2232 32.4708 66.1334C31.9943 65.5318 31.5841 64.8912 31.2364 64.2193C30.6388 64.5826 29.9942 64.8912 29.3536 65.188C29.0411 63.3677 28.8028 61.4849 29.6739 59.8247C29.7599 59.6646 29.8536 59.5122 29.9552 59.3638C29.9239 58.5591 29.9747 57.7466 30.1153 56.9419C30.2286 56.2974 30.7325 55.8442 31.3145 55.5552C31.213 55.3482 31.1192 55.1372 31.0255 54.9224C30.1231 55.7974 28.9513 56.3872 27.7794 56.9341C27.4669 55.1138 27.2247 53.2153 28.0958 51.5552C28.5489 50.6919 29.2247 50.0435 30.002 49.5122C30.0254 49.1841 30.0606 48.852 30.1192 48.5239C30.2325 47.8833 30.7325 47.4262 31.3106 47.1372C31.1543 46.8169 31.0098 46.4927 30.877 46.1645C29.7403 46.7427 28.7129 47.5161 27.8575 48.4614C27.8341 48.2192 27.795 47.9771 27.752 47.7388C27.2169 44.9302 25.5606 42.4615 23.1778 40.9068L20.5762 27.2818L20.5684 27.2779C20.4629 26.7466 19.9512 26.399 19.4161 26.4927L19.4162 26.496ZM64.8892 26.496C64.3579 26.4023 63.8462 26.7499 63.7369 27.2812L61.1353 40.9062C58.7525 42.4609 57.0962 44.9296 56.5611 47.7382C56.5181 47.9764 56.4791 48.2225 56.4556 48.4608C55.5962 47.5155 54.5689 46.742 53.4283 46.1639C53.2955 46.4881 53.1549 46.8124 52.9986 47.1288C53.5768 47.4178 54.0728 47.8749 54.1861 48.5155C54.2447 48.8514 54.2838 49.1834 54.3072 49.5155C55.0807 50.0506 55.7564 50.6991 56.2095 51.5585C57.0806 53.2226 56.8423 55.1171 56.5298 56.9374C55.3618 56.3944 54.186 55.8007 53.2876 54.9296C53.1978 55.1405 53.104 55.3514 53.0025 55.5585C53.5884 55.8514 54.0806 56.3046 54.19 56.953C54.3306 57.7577 54.3853 58.5663 54.354 59.3671C54.4556 59.5155 54.5493 59.6679 54.6353 59.828C55.5064 61.4921 55.2681 63.371 54.9595 65.1913C54.3189 64.8944 53.6783 64.5858 53.0845 64.2226C52.7408 64.8905 52.3306 65.5351 51.8501 66.1328C51.7798 66.2226 51.7056 66.3046 51.6353 66.3906C52.2095 66.8515 52.7056 67.3945 53.065 68.0742C53.9361 69.7383 53.6978 71.6328 53.3853 73.4531C51.7095 72.6718 50.022 71.7969 49.147 70.1328C48.9204 69.7031 48.772 69.2617 48.6782 68.8086C48.0728 69.1484 47.436 69.4336 46.7759 69.664C46.8462 69.8672 46.9205 70.0664 47.0064 70.2617C46.8228 70.207 46.6392 70.1562 46.4517 70.1094L46.44 70.1172C46.0298 70.0312 45.608 70.2109 45.3892 70.5664L44.6001 74.6875C44.6353 76.2891 45.0337 77.8789 45.7954 79.332C47.1938 81.9922 49.6626 83.9297 52.5845 84.6445C52.6509 84.6601 52.7212 84.6718 52.7876 84.6757L50.561 96.3317H50.5649C50.4673 96.863 50.8149 97.3747 51.3462 97.484C51.8814 97.5895 52.4009 97.2418 52.5103 96.7028L54.7369 85.0468C54.7955 85.0702 54.858 85.0859 54.9205 85.0937C57.901 85.5038 60.9166 84.6171 63.2017 82.6601C65.4829 80.6992 66.8072 77.8632 66.854 74.8554H66.8501C66.8618 74.3554 66.4946 73.9257 65.9985 73.8554C65.8071 73.8202 65.6118 73.8085 65.4204 73.7929C67.3032 71.8749 68.3892 69.2851 68.4282 66.5781L68.4321 66.5742C68.4399 66.0742 68.0727 65.6484 67.5766 65.5781C67.3852 65.5468 67.1977 65.5312 67.0063 65.5156C68.8852 63.5976 69.9633 61.0195 70.0063 58.3125C70.0141 57.8125 69.6509 57.3828 69.1548 57.3086C68.9634 57.2773 68.7759 57.2617 68.5845 57.2461C70.44 55.3516 71.5181 52.8203 71.5806 50.1523L74.2876 35.9643C74.393 35.4252 74.0454 34.9096 73.5102 34.8002C73.2524 34.7494 72.9829 34.8041 72.7602 34.9525C72.5415 35.101 72.393 35.3314 72.3423 35.5892L69.7914 48.9682C68.0102 48.8823 66.2445 49.2495 64.6625 50.0229C64.725 49.7886 64.7876 49.5581 64.8266 49.3198C65.3579 46.5151 64.725 43.6206 63.0844 41.3003L65.686 27.6633C65.7837 27.1242 65.4321 26.6047 64.893 26.5031L64.8892 26.496ZM42.1622 27.5155C43.2794 28.9882 44.377 30.5546 44.377 32.4335C44.377 34.3163 43.2872 35.8788 42.1622 37.3515C41.0372 35.8788 39.9474 34.3163 39.9474 32.4335C39.9474 30.5546 41.0412 28.9882 42.1622 27.5155ZM33.5177 33.7811C35.3146 34.2342 37.1427 34.7772 38.3146 36.2459C39.4826 37.7147 39.5958 39.6248 39.6349 41.4725C37.8458 41.0194 36.0177 40.4725 34.8497 39.0077C33.6778 37.5389 33.5567 35.6327 33.5177 33.785V33.7811ZM50.7877 33.7811C50.7525 35.6288 50.6236 37.535 49.4557 39.0038C48.2838 40.4726 46.4635 41.0194 44.6705 41.4686C44.7057 39.6209 44.8228 37.7147 45.9908 36.242C47.1627 34.7693 48.9947 34.2264 50.7877 33.7772V33.7811ZM33.5177 42.1991C35.3146 42.6522 37.1427 43.1952 38.3146 44.6639C39.4826 46.1327 39.5958 48.0272 39.6349 49.8748C37.8458 49.4217 36.0177 48.8904 34.8497 47.4256C33.6778 45.9568 33.5567 44.0507 33.5177 42.1991ZM50.7877 42.1991C50.7525 44.0468 50.6236 45.953 49.4557 47.4257C48.2838 48.8945 46.4635 49.4257 44.6705 49.8749C44.7057 48.0272 44.8228 46.1366 45.9908 44.664C47.1627 43.1913 48.9947 42.6483 50.7877 42.1991ZM22.6937 43.6991C24.0687 44.9335 25.4398 46.2694 25.7914 48.1132C26.143 49.9609 25.3656 51.6991 24.5375 53.3554C23.1586 52.121 21.7953 50.7929 21.4398 48.9413C21.0882 47.0936 21.8695 45.3475 22.6937 43.6952V43.6991ZM61.6077 43.6991C62.4319 45.3514 63.2171 47.0975 62.8655 48.9452C62.51 50.7929 61.1467 52.1249 59.7639 53.3593C58.9358 51.7031 58.1584 49.9648 58.51 48.1171C58.8616 46.2733 60.2327 44.9374 61.6077 43.703V43.6991ZM33.5177 50.6132C35.3107 51.0663 37.1427 51.5937 38.3146 53.0624C39.4826 54.5312 39.5958 56.4413 39.6349 58.289C37.8458 57.8359 36.0177 57.289 34.8497 55.8242C33.6817 54.3554 33.5567 52.4608 33.5177 50.6132ZM50.7877 50.6132C50.7525 52.4609 50.6236 54.3515 49.4557 55.8241C48.2838 57.2929 46.4635 57.8397 44.6705 58.2889C44.7057 56.4412 44.8228 54.535 45.9908 53.0623C47.1627 51.5896 48.9947 51.0624 50.7877 50.6132ZM15.3777 51.4726C17.2254 51.582 19.1277 51.7695 20.5535 52.996C21.9754 54.2226 22.4441 56.0702 22.8308 57.8788C20.987 57.7694 19.0925 57.578 17.6667 56.3554C16.2409 55.1288 15.7645 53.2812 15.3777 51.4726ZM68.9207 51.4726C68.534 53.2812 68.0574 55.1288 66.6316 56.3554C65.2097 57.5781 63.3113 57.7695 61.4714 57.8788C61.8542 56.0702 62.323 54.2226 63.7487 52.996C65.1784 51.7694 67.073 51.5819 68.9207 51.4726ZM33.5187 59.0195C35.3156 59.4687 37.1437 60.0156 38.3156 61.4843C39.4875 62.957 39.6008 64.8554 39.6359 66.707C37.8468 66.2539 36.0187 65.7109 34.8507 64.2461C33.6788 62.7773 33.5577 60.8711 33.5187 59.0195ZM50.7887 59.0195C50.7535 60.8672 50.6246 62.7734 49.4567 64.2461C48.2848 65.7149 46.4645 66.2578 44.6715 66.707C44.7066 64.8554 44.8199 62.957 45.9918 61.4843C47.1637 60.0116 48.9957 59.4687 50.7887 59.0195ZM16.9567 59.7382C18.8044 59.8476 20.7028 60.0351 22.1325 61.2616C23.5544 62.4843 24.0192 64.3241 24.4059 66.1327C22.5661 66.0234 20.6676 65.8437 19.2457 64.621C17.8199 63.3944 17.3435 61.5468 16.9567 59.7382ZM67.3437 59.7382C66.957 61.5468 66.4804 63.3944 65.0546 64.621C63.6327 65.8437 61.7382 66.0194 59.8984 66.1327C60.2851 64.328 60.75 62.4882 62.1718 61.2616C63.6015 60.035 65.496 59.8475 67.3437 59.7382ZM24.0737 60.3554H24.0854L24.1323 60.3867L24.101 60.3906C24.0932 60.3789 24.0893 60.3671 24.0698 60.3593L24.0737 60.3554ZM60.2107 60.3554H60.2224V60.3593C60.2029 60.3671 60.199 60.3789 60.1912 60.3906L60.1599 60.3867L60.2107 60.3554ZM18.5307 68.0077C20.3784 68.1171 22.2768 68.289 23.7026 69.5155C25.1284 70.7421 25.5932 72.5936 25.9799 74.4022C24.1361 74.2928 22.2416 74.0975 20.8158 72.8749C19.39 71.6522 18.9175 69.8124 18.5307 68.0077ZM65.7647 68.0077C65.378 69.8163 64.9014 71.6522 63.4756 72.8749C62.0537 74.0976 60.1553 74.2929 58.3154 74.4022C58.7021 72.5936 59.167 70.742 60.5927 69.5155C62.0184 68.289 63.917 68.1171 65.7647 68.0077ZM26.6197 69.7421L26.6431 69.746L26.6627 69.8163C26.6549 69.7968 26.6392 69.7812 26.6314 69.7695L26.6197 69.7421ZM57.6747 69.7421L57.663 69.7734C57.6552 69.7851 57.6395 69.8046 57.6317 69.8202L57.6513 69.7499L57.6747 69.746V69.7421ZM37.0727 73.0273C37.3852 74.8476 37.6157 76.7461 36.7407 78.4101C35.8657 80.0742 34.1782 80.9492 32.5024 81.7304C32.1899 79.9062 31.9477 78.0156 32.8227 76.3515C33.6977 74.6874 35.393 73.8085 37.0727 73.0273ZM47.2207 73.0273C48.9004 73.8086 50.5996 74.6835 51.4746 76.3515C52.3496 78.0195 52.1074 79.9062 51.7949 81.7304C50.1191 80.9492 48.4316 80.0742 47.5566 78.4101C46.6816 76.746 46.9082 74.8476 47.2207 73.0273ZM20.1077 76.2656C21.9554 76.3711 23.8538 76.5625 25.2835 77.789C26.7093 79.0156 27.178 80.8632 27.5608 82.6757C25.717 82.5663 23.8225 82.371 22.4006 81.1484C20.9748 79.9218 20.4945 78.0742 20.1077 76.2656ZM64.1897 76.2656C63.803 78.0742 63.3264 79.9218 61.9006 81.1484C60.4787 82.3711 58.5803 82.5664 56.7365 82.6757C57.1193 80.8632 57.5881 79.0195 59.0177 77.789C60.4474 76.5624 62.342 76.371 64.1897 76.2656Z" fill="#F1CF69"/>
</svg>
