<svg xmlns="http://www.w3.org/2000/svg" version="1.1" viewBox="-5.0 -10.0 110.0 135.0">
 <path d="m50.008 6.25v0.007812c-0.54687-0.003906-0.99219 0.4375-0.99609 0.98438v13.887c-2.0469 1.9727-3.2109 4.6992-3.2148 7.5547 0 0.24219 0.003906 0.48438 0.023437 0.72266-1.4102-1.0586-3.0703-1.75-4.8359-2v-13.621c0-0.26562-0.10547-0.51953-0.29297-0.70703s-0.44141-0.28906-0.70703-0.28906c-0.54688 0.003907-0.98438 0.44922-0.98047 0.99609v14.434c-0.44141 2.6406 0.14062 5.3359 1.6133 7.5469-0.19141-0.019531-0.38281-0.035156-0.57422-0.046875-0.5-0.027344-0.94141 0.32812-1.0273 0.82031-0.46875 2.668 0.11328 5.4062 1.6016 7.6406-0.19141-0.019532-0.38281-0.035157-0.57422-0.046876-0.5-0.023437-0.94141 0.32813-1.0273 0.82031-0.46875 2.668 0.11719 5.4102 1.6094 7.6484-0.19141-0.019531-0.38672-0.042968-0.57812-0.046874h-0.003906c-0.5-0.023438-0.94141 0.32812-1.0273 0.82031-0.51953 2.9609 0.25781 6 2.1289 8.3516 1.875 2.3516 4.6719 3.7891 7.6758 3.9453v0.003906c0.0625 0 0.125-0.003906 0.1875-0.011719v27.102-0.003906c0.007813 0.53906 0.44141 0.97656 0.98438 0.98438 0.54297 0 0.99219-0.4375 0.99609-0.98438v-27.102c0.070313 0.011719 0.13672 0.015625 0.20703 0.011719 3.0039-0.15625 5.7852-1.5938 7.6602-3.9453 1.8711-2.3516 2.6445-5.3906 2.1289-8.3516v-0.003906c-0.089844-0.49219-0.52734-0.84375-1.0312-0.82031-0.19531 0.011719-0.38281 0.03125-0.57812 0.046875 1.4922-2.2383 2.0742-4.9805 1.6055-7.6484h0.003906c-0.089844-0.49219-0.53125-0.84375-1.0312-0.82031-0.19141 0.011719-0.37891 0.023438-0.57031 0.046875 1.4883-2.2344 2.0664-4.9766 1.5977-7.6406h0.003906c-0.089844-0.49219-0.52734-0.84375-1.0312-0.82031-0.19141 0.011718-0.38281 0.023437-0.57031 0.042968 1.4688-2.207 2.0508-4.8945 1.6133-7.5273v-14.445l0.003906-0.003906c0-0.54688-0.4375-0.99219-0.98438-1-0.26562 0-0.51953 0.10547-0.70703 0.29297s-0.29297 0.44141-0.28906 0.70703v13.625c-1.7656 0.25-3.4336 0.9375-4.8438 2 0.019531-0.24219 0.03125-0.48438 0.03125-0.72656 0-2.8594-1.1641-5.5938-3.2148-7.5703v-13.875c-0.007813-0.53906-0.44531-0.97656-0.98438-0.98438zm-22.746 16.496-0.003907 0.007812h0.003907c-0.53906 0.097656-0.89844 0.61719-0.79688 1.1562l2.6016 13.637c-1.6406 2.3203-2.2734 5.2148-1.7383 8.0195 0.042969 0.23828 0.10156 0.47266 0.16016 0.70312-1.582-0.77734-3.3477-1.1406-5.1289-1.0547l-2.5547-13.379h0.003906c-0.050782-0.25781-0.19922-0.48828-0.41797-0.63672-0.21875-0.14844-0.48828-0.20312-0.75-0.15234-0.53516 0.10938-0.87891 0.62891-0.77734 1.1641l2.707 14.188c0.0625 2.6719 1.1406 5.2031 2.9961 7.0938-0.19141 0.019531-0.38281 0.035156-0.57031 0.0625v0.003906c-0.49609 0.070312-0.86328 0.5-0.85547 1 0.042969 2.707 1.125 5.2852 3.0039 7.2031-0.19141 0.019531-0.38281 0.035156-0.57031 0.0625-0.49609 0.070312-0.85938 0.5-0.85547 1 0.042969 2.707 1.125 5.2969 3.0078 7.2148-0.19141 0.019532-0.38281 0.03125-0.57422 0.0625-0.49609 0.070313-0.85938 0.5-0.85156 1 0.046875 3.0078 1.3711 5.8438 3.6523 7.8047 2.2812 1.957 5.3008 2.8438 8.2812 2.4336 0.0625-0.007813 0.12109-0.023438 0.18359-0.046875l2.2266 11.656-0.003906 0.003906c0.10938 0.53125 0.62891 0.87891 1.1641 0.77734 0.52734-0.10938 0.875-0.61719 0.78125-1.1523l-2.2266-11.656c0.070313-0.003906 0.14062-0.011719 0.20703-0.03125 2.9219-0.71484 5.3828-2.6523 6.7852-5.3125 0.76172-1.4531 1.1641-3.043 1.1992-4.6445l-0.78906-4.1211c-0.21875-0.35547-0.64062-0.53516-1.0508-0.44922-0.1875 0.046875-0.37109 0.097657-0.55469 0.15234 0.082031-0.19922 0.15625-0.39844 0.23047-0.60156-0.66016-0.23047-1.293-0.51562-1.8984-0.85547-0.097656 0.45312-0.25 0.89844-0.47656 1.3281-0.875 1.6641-2.5586 2.5391-4.2344 3.3203-0.3125-1.8203-0.55469-3.7188 0.31641-5.3789 0.35938-0.68359 0.85938-1.2266 1.4375-1.6914-0.070312-0.085938-0.14844-0.16406-0.21484-0.25391-0.47656-0.60156-0.88672-1.2422-1.2344-1.9141-0.59766 0.36328-1.2422 0.67188-1.8828 0.96875-0.3125-1.8203-0.55078-3.7031 0.32031-5.3633 0.085938-0.16016 0.17969-0.3125 0.28125-0.46094-0.03125-0.80469 0.019531-1.6172 0.16016-2.4219 0.11328-0.64453 0.61719-1.0977 1.1992-1.3867-0.10156-0.20703-0.19531-0.41797-0.28906-0.63281-0.90234 0.875-2.0742 1.4648-3.2461 2.0117-0.3125-1.8203-0.55469-3.7188 0.31641-5.3789 0.45312-0.86328 1.1289-1.5117 1.9062-2.043 0.023438-0.32812 0.058594-0.66016 0.11719-0.98828 0.11328-0.64063 0.61328-1.0977 1.1914-1.3867-0.15625-0.32031-0.30078-0.64453-0.43359-0.97266-1.1367 0.57813-2.1641 1.3516-3.0195 2.2969-0.023437-0.24219-0.0625-0.48438-0.10547-0.72266-0.53516-2.8086-2.1914-5.2773-4.5742-6.832l-2.6016-13.625-0.007813-0.003906c-0.10547-0.53125-0.61719-0.87891-1.1523-0.78516zm45.473 0c-0.53125-0.09375-1.043 0.25391-1.1523 0.78516l-2.6016 13.625c-2.3828 1.5547-4.0391 4.0234-4.5742 6.832-0.042969 0.23828-0.082031 0.48438-0.10547 0.72266-0.85938-0.94531-1.8867-1.7188-3.0273-2.2969-0.13281 0.32422-0.27344 0.64844-0.42969 0.96484 0.57812 0.28906 1.0742 0.74609 1.1875 1.3867 0.058594 0.33594 0.097656 0.66797 0.12109 1 0.77344 0.53516 1.4492 1.1836 1.9023 2.043 0.87109 1.6641 0.63281 3.5586 0.32031 5.3789-1.168-0.54297-2.3438-1.1367-3.2422-2.0078-0.089843 0.21094-0.18359 0.42187-0.28516 0.62891 0.58594 0.29297 1.0781 0.74609 1.1875 1.3945 0.14062 0.80469 0.19531 1.6133 0.16406 2.4141 0.10156 0.14844 0.19531 0.30078 0.28125 0.46094 0.87109 1.6641 0.63281 3.543 0.32422 5.3633-0.64063-0.29688-1.2812-0.60547-1.875-0.96875-0.34375 0.66797-0.75391 1.3125-1.2344 1.9102-0.070312 0.089844-0.14453 0.17188-0.21484 0.25781 0.57422 0.46094 1.0703 1.0039 1.4297 1.6836 0.87109 1.6641 0.63281 3.5586 0.32031 5.3789-1.6758-0.78125-3.3633-1.6562-4.2383-3.3203-0.22656-0.42969-0.375-0.87109-0.46875-1.3242-0.60547 0.33984-1.2422 0.625-1.9023 0.85547 0.070312 0.20313 0.14453 0.40234 0.23047 0.59766-0.18359-0.054688-0.36719-0.10547-0.55469-0.15234l-0.011719 0.007813c-0.41016-0.085938-0.83203 0.09375-1.0508 0.44922l-0.78906 4.1211c0.035157 1.6016 0.43359 3.1914 1.1953 4.6445 1.3984 2.6602 3.8672 4.5977 6.7891 5.3125 0.066406 0.015625 0.13672 0.027344 0.20312 0.03125l-2.2266 11.656h0.003906c-0.097656 0.53125 0.25 1.043 0.78125 1.1523 0.53516 0.10547 1.0547-0.24219 1.1641-0.78125l2.2266-11.656c0.058594 0.023437 0.12109 0.039063 0.18359 0.046875 2.9805 0.41016 5.9961-0.47656 8.2812-2.4336 2.2812-1.9609 3.6055-4.7969 3.6523-7.8047h-0.003907c0.011719-0.5-0.35547-0.92969-0.85156-1-0.19141-0.035157-0.38672-0.046875-0.57812-0.0625 1.8828-1.918 2.9688-4.5078 3.0078-7.2148l0.003906-0.003906c0.007812-0.5-0.35938-0.92578-0.85547-0.99609-0.19141-0.03125-0.37891-0.046875-0.57031-0.0625 1.8789-1.918 2.957-4.4961 3-7.2031 0.007813-0.5-0.35547-0.92969-0.85156-1.0039-0.19141-0.03125-0.37891-0.046875-0.57031-0.0625 1.8555-1.8945 2.9336-4.4258 2.9961-7.0938l2.707-14.188c0.10547-0.53906-0.24219-1.0547-0.77734-1.1641-0.25781-0.050781-0.52734 0.003907-0.75 0.15234-0.21875 0.14844-0.36719 0.37891-0.41797 0.63672l-2.5508 13.379c-1.7812-0.085938-3.5469 0.28125-5.1289 1.0547 0.0625-0.23438 0.125-0.46484 0.16406-0.70313 0.53125-2.8047-0.10156-5.6992-1.7422-8.0195l2.6016-13.637c0.097656-0.53906-0.25391-1.0586-0.79297-1.1602zm-22.727 1.0195c1.1172 1.4727 2.2148 3.0391 2.2148 4.918 0 1.8828-1.0898 3.4453-2.2148 4.918-1.125-1.4727-2.2148-3.0352-2.2148-4.918 0-1.8789 1.0938-3.4453 2.2148-4.918zm-8.6445 6.2656c1.7969 0.45312 3.625 0.99609 4.7969 2.4648 1.168 1.4688 1.2812 3.3789 1.3203 5.2266-1.7891-0.45312-3.6172-1-4.7852-2.4648-1.1719-1.4688-1.293-3.375-1.332-5.2227zm17.27 0c-0.035156 1.8477-0.16406 3.7539-1.332 5.2227-1.1719 1.4688-2.9922 2.0156-4.7852 2.4648 0.035156-1.8477 0.15234-3.7539 1.3203-5.2266 1.1719-1.4727 3.0039-2.0156 4.7969-2.4648zm-17.27 8.418c1.7969 0.45312 3.625 0.99609 4.7969 2.4648 1.168 1.4688 1.2812 3.3633 1.3203 5.2109-1.7891-0.45312-3.6172-0.98438-4.7852-2.4492-1.1719-1.4688-1.293-3.375-1.332-5.2266zm17.27 0c-0.035156 1.8477-0.16406 3.7539-1.332 5.2266-1.1719 1.4688-2.9922 2-4.7852 2.4492 0.035156-1.8477 0.15234-3.7383 1.3203-5.2109 1.1719-1.4727 3.0039-2.0156 4.7969-2.4648zm-28.094 1.5c1.375 1.2344 2.7461 2.5703 3.0977 4.4141 0.35156 1.8477-0.42578 3.5859-1.2539 5.2422-1.3789-1.2344-2.7422-2.5625-3.0977-4.4141-0.35156-1.8477 0.42969-3.5938 1.2539-5.2461zm38.914 0c0.82422 1.6523 1.6094 3.3984 1.2578 5.2461-0.35547 1.8477-1.7188 3.1797-3.1016 4.4141-0.82812-1.6562-1.6055-3.3945-1.2539-5.2422 0.35156-1.8438 1.7227-3.1797 3.0977-4.4141zm-28.09 6.9141c1.793 0.45312 3.625 0.98047 4.7969 2.4492 1.168 1.4688 1.2812 3.3789 1.3203 5.2266-1.7891-0.45312-3.6172-1-4.7852-2.4648-1.168-1.4688-1.293-3.3633-1.332-5.2109zm17.27 0c-0.035156 1.8477-0.16406 3.7383-1.332 5.2109-1.1719 1.4688-2.9922 2.0156-4.7852 2.4648 0.035156-1.8477 0.15234-3.7539 1.3203-5.2266 1.1719-1.4727 3.0039-2 4.7969-2.4492zm-35.41 0.85938c1.8477 0.10938 3.75 0.29688 5.1758 1.5234 1.4219 1.2266 1.8906 3.0742 2.2773 4.8828-1.8438-0.10938-3.7383-0.30078-5.1641-1.5234-1.4258-1.2266-1.9023-3.0742-2.2891-4.8828zm53.543 0c-0.38672 1.8086-0.86328 3.6562-2.2891 4.8828-1.4219 1.2227-3.3203 1.4141-5.1602 1.5234 0.38281-1.8086 0.85156-3.6562 2.2773-4.8828 1.4297-1.2266 3.3242-1.4141 5.1719-1.5234zm-35.402 7.5469c1.7969 0.44922 3.625 0.99609 4.7969 2.4648 1.1719 1.4727 1.2852 3.3711 1.3203 5.2227-1.7891-0.45312-3.6172-0.99609-4.7852-2.4609-1.1719-1.4688-1.293-3.375-1.332-5.2266zm17.27 0c-0.035156 1.8477-0.16406 3.7539-1.332 5.2266-1.1719 1.4688-2.9922 2.0117-4.7852 2.4609 0.035156-1.8516 0.14844-3.75 1.3203-5.2227 1.1719-1.4727 3.0039-2.0156 4.7969-2.4648zm-33.832 0.71875c1.8477 0.10938 3.7461 0.29688 5.1758 1.5234 1.4219 1.2227 1.8867 3.0625 2.2734 4.8711-1.8398-0.10937-3.7383-0.28906-5.1602-1.5117-1.4258-1.2266-1.9023-3.0742-2.2891-4.8828zm50.387 0c-0.38672 1.8086-0.86328 3.6562-2.2891 4.8828-1.4219 1.2227-3.3164 1.3984-5.1562 1.5117 0.38672-1.8047 0.85156-3.6445 2.2734-4.8711 1.4297-1.2266 3.3242-1.4141 5.1719-1.5234zm-43.27 0.61719h0.011719l0.046874 0.03125-0.03125 0.003906c-0.007812-0.011719-0.011718-0.023437-0.03125-0.03125zm36.137 0h0.011718v0.003906c-0.019531 0.007813-0.023437 0.019531-0.03125 0.03125l-0.03125-0.003906zm-41.68 7.6523c1.8477 0.10938 3.7461 0.28125 5.1719 1.5078s1.8906 3.0781 2.2773 4.8867c-1.8438-0.10938-3.7383-0.30469-5.1641-1.5273-1.4258-1.2227-1.8984-3.0625-2.2852-4.8672zm47.234 0c-0.38672 1.8086-0.86328 3.6445-2.2891 4.8672-1.4219 1.2227-3.3203 1.418-5.1602 1.5273 0.38672-1.8086 0.85156-3.6602 2.2773-4.8867s3.3242-1.3984 5.1719-1.5078zm-39.145 1.7344s0.023437 0.003906 0.023437 0.003906l0.019531 0.070312c-0.007812-0.019531-0.023437-0.035156-0.03125-0.046875zm31.055 0-0.011719 0.03125c-0.007812 0.011718-0.023437 0.03125-0.03125 0.046874l0.019532-0.070312s0.023437-0.003906 0.023437-0.003906zm-20.602 3.2852c0.3125 1.8203 0.54297 3.7188-0.33203 5.3828-0.875 1.6641-2.5625 2.5391-4.2383 3.3203-0.3125-1.8242-0.55469-3.7148 0.32031-5.3789 0.875-1.6641 2.5703-2.543 4.25-3.3242zm10.148 0c1.6797 0.78125 3.3789 1.6562 4.2539 3.3242 0.875 1.668 0.63281 3.5547 0.32031 5.3789-1.6758-0.78125-3.3633-1.6562-4.2383-3.3203-0.875-1.6641-0.64844-3.5625-0.33594-5.3828zm-27.113 3.2383c1.8477 0.10547 3.7461 0.29688 5.1758 1.5234 1.4258 1.2266 1.8945 3.0742 2.2773 4.8867-1.8438-0.10938-3.7383-0.30469-5.1602-1.5273-1.4258-1.2266-1.9062-3.0742-2.293-4.8828zm44.082 0c-0.38672 1.8086-0.86328 3.6562-2.2891 4.8828-1.4219 1.2227-3.3203 1.418-5.1641 1.5273 0.38281-1.8125 0.85156-3.6562 2.2812-4.8867 1.4297-1.2266 3.3242-1.418 5.1719-1.5234z"/>
<text x="0.0" y="117.5" font-size="5.0" font-weight="bold" font-family="Arbeit Regular, Helvetica, Arial-Unicode, Arial, Sans-serif" fill="#000000">Created by Cuan Studio</text><text x="0.0" y="122.5" font-size="5.0" font-weight="bold" font-family="Arbeit Regular, Helvetica, Arial-Unicode, Arial, Sans-serif" fill="#000000">from Noun Project</text></svg>